<svg width="24" height="26" viewBox="0 0 24 26" fill="none" xmlns="http://www.w3.org/2000/svg">
<path d="M12 0.826172C5.37321 0.826172 0 6.26246 0 12.967C0 19.6716 5.37321 25.1079 12 25.1079C18.6268 25.1079 24 19.6716 24 12.967C24 6.26246 18.6268 0.826172 12 0.826172ZM12 23.0483C6.49821 23.0483 2.03571 18.5334 2.03571 12.967C2.03571 7.40066 6.49821 2.88578 12 2.88578C17.5018 2.88578 21.9643 7.40066 21.9643 12.967C21.9643 18.5334 17.5018 23.0483 12 23.0483ZM15.1527 7.09714C14.7268 7.00229 14.2313 6.9508 13.6714 6.9508C10.8134 6.9508 8.87946 8.46028 8.35179 11.0131H7.5C7.38214 11.0131 7.28571 11.1107 7.28571 11.2299V11.967C7.28571 12.0863 7.38214 12.1838 7.5 12.1838H8.20714C8.19911 12.2949 8.19911 12.4115 8.19911 12.5307V13.5307H7.5C7.38214 13.5307 7.28571 13.6283 7.28571 13.7475V14.4846C7.28571 14.6039 7.38214 14.7014 7.5 14.7014H8.30893C8.76964 17.3898 10.7304 18.9833 13.6714 18.9833C14.2313 18.9833 14.7268 18.9372 15.1527 18.845C15.2518 18.8234 15.3241 18.7366 15.3241 18.6337V17.4738C15.3241 17.3383 15.2009 17.2353 15.0696 17.2624C14.6759 17.3383 14.2152 17.3735 13.6821 17.3735C11.8473 17.3735 10.6152 16.3816 10.2054 14.7014H13.7036C13.8214 14.7014 13.9179 14.6039 13.9179 14.4846V13.7475C13.9179 13.6283 13.8214 13.5307 13.7036 13.5307H10.05V12.5551C10.05 12.4277 10.05 12.3004 10.058 12.1811H13.6982C13.8161 12.1811 13.9125 12.0836 13.9125 11.9643V11.2272C13.9125 11.108 13.8161 11.0104 13.6982 11.0104H10.2616C10.7223 9.4684 11.9304 8.56055 13.6795 8.56055C14.2125 8.56055 14.6732 8.6012 15.0643 8.67979C15.0953 8.6862 15.1274 8.68556 15.1582 8.67793C15.189 8.67029 15.2177 8.65585 15.2423 8.63563C15.2669 8.61541 15.2867 8.58993 15.3004 8.56101C15.3141 8.53209 15.3213 8.50047 15.3214 8.46841V7.30852C15.3214 7.20554 15.2518 7.11882 15.1527 7.09714Z" fill="#3BB9E0"/>
</svg>
