<svg width="25" height="26" viewBox="0 0 25 26" fill="none" xmlns="http://www.w3.org/2000/svg">
<path d="M12.5 0.40625C5.59627 0.40625 0 6.04449 0 13C0 19.9555 5.59627 25.5938 12.5 25.5938C19.4037 25.5938 25 19.9555 25 13C25 6.04449 19.4037 0.40625 12.5 0.40625ZM20.5645 11.3496V11.7015C20.5645 11.9996 20.3972 12.2723 20.1326 12.4054L19.3569 12.7964C19.2337 12.8585 19.0964 12.8866 18.9589 12.878C18.8214 12.8693 18.6886 12.8242 18.5741 12.7471L17.6562 12.1306C17.5572 12.0642 17.4445 12.0214 17.3266 12.0054C17.2087 11.9895 17.0887 12.0009 16.9758 12.0387L16.8422 12.0834C16.3533 12.2474 16.1537 12.8345 16.4395 13.2666L17.1069 14.2751C17.2515 14.494 17.4955 14.6255 17.7566 14.6255H18.1704C18.6018 14.6255 18.9516 14.9779 18.9516 15.4126V15.9885C18.9516 16.1586 18.8967 16.3246 18.7954 16.4607L17.8508 17.7293C17.7792 17.8257 17.7303 17.9375 17.7082 18.0558L17.4914 19.2151C17.4602 19.3822 17.376 19.5345 17.2515 19.6498C16.7739 20.0905 16.3508 20.5877 15.9914 21.1306L15.3347 22.1234C15.2069 22.3164 15.0339 22.4747 14.8309 22.5842C14.6279 22.6937 14.4011 22.751 14.1709 22.751C13.6411 22.751 13.1568 22.4494 12.9199 21.972C12.6437 21.4156 12.5 20.8021 12.5 20.18V18.6621C12.5 18.2274 12.1502 17.875 11.7188 17.875H10.4143C9.68397 17.875 8.98387 17.5825 8.46724 17.0625C7.95099 16.5421 7.66093 15.8366 7.66079 15.1008V14.3868C7.66079 13.5139 8.06905 12.6918 8.7621 12.1677L10.1522 11.117C10.6289 10.7569 11.2086 10.5622 11.8044 10.562H11.8493C12.2767 10.562 12.6986 10.662 13.0806 10.855L13.8226 11.2288C14.0081 11.3222 14.2223 11.3374 14.4189 11.2714L16.8034 10.4706C17.1225 10.3634 17.3377 10.0628 17.3377 9.7241C17.3377 9.28941 16.9879 8.93699 16.5565 8.93699H16.0479C15.8407 8.93699 15.6421 8.85422 15.4955 8.70644L15.1467 8.35504C15.0741 8.28193 14.988 8.22394 14.8932 8.18439C14.7984 8.14483 14.6969 8.12448 14.5943 8.12449H10.0554C9.62399 8.12449 9.27419 7.77207 9.27419 7.33738V7.11395C9.27419 6.75289 9.51815 6.43805 9.86593 6.3502L10.5943 6.16687C10.7828 6.11914 10.9471 6.00285 11.0549 5.83984L11.4622 5.22488C11.6069 5.00602 11.8508 4.87449 12.1119 4.87449H13.3322C13.7636 4.87449 14.1134 4.52207 14.1134 4.08738V2.98543C18.1064 3.63746 21.3135 6.65336 22.2747 10.5625H21.3458C20.9143 10.5625 20.5645 10.9149 20.5645 11.3496Z" fill="#F7D452"/>
</svg>
